<svg xmlns="http://www.w3.org/2000/svg" width="50" height="50" viewBox="0 0 50 50">
  <g id="Cultura_Lazer" transform="translate(0.205)">
    <g id="Group_904" data-name="Group 904">
      <rect id="Rectangle_274" data-name="Rectangle 274" width="50" height="50" transform="translate(-0.205)" fill="none"/>
    </g>
    <g id="Group_908" data-name="Group 908" transform="translate(3.516 4.363)">
      <g id="Group_907" data-name="Group 907">
        <g id="Group_906" data-name="Group 906">
          <g id="Group_905" data-name="Group 905">
            <path id="Path_5550" data-name="Path 5550" d="M22.833,43.667A20.833,20.833,0,1,1,22.833,2c11.479,0,20.833,8.417,20.833,18.75a12.5,12.5,0,0,1-12.5,12.5H27.479a1.042,1.042,0,0,0-1.042,1.042,1.1,1.1,0,0,0,.271.688,5.3,5.3,0,0,1,1.333,3.479,5.208,5.208,0,0,1-5.208,5.208Zm0-37.5a16.667,16.667,0,1,0,0,33.333,1.042,1.042,0,0,0,1.042-1.042,1.127,1.127,0,0,0-.292-.729,5.194,5.194,0,0,1,3.9-8.646h3.688A8.333,8.333,0,0,0,39.5,20.75C39.5,12.708,32.021,6.167,22.833,6.167Z" transform="translate(-2 -2)" fill="#007ac2"/>
            <circle id="Ellipse_87" data-name="Ellipse 87" cx="3.125" cy="3.125" r="3.125" transform="translate(6.901 16.471)" fill="#007ac2"/>
            <circle id="Ellipse_88" data-name="Ellipse 88" cx="3.125" cy="3.125" r="3.125" transform="translate(13.151 8.137)" fill="#007ac2"/>
            <circle id="Ellipse_89" data-name="Ellipse 89" cx="3.125" cy="3.125" r="3.125" transform="translate(23.568 8.137)" fill="#007ac2"/>
            <circle id="Ellipse_90" data-name="Ellipse 90" cx="3.125" cy="3.125" r="3.125" transform="translate(29.818 16.471)" fill="#007ac2"/>
          </g>
        </g>
      </g>
    </g>
  </g>
</svg>
